<?xml version="1.0"?>
<svg xmlns="http://www.w3.org/2000/svg" xmlns:xlink="http://www.w3.org/1999/xlink" xmlns:svgjs="http://svgjs.com/svgjs" version="1.1" width="512" height="512" x="0" y="0" viewBox="0 0 512 512" style="enable-background:new 0 0 512 512" xml:space="preserve" class=""><g><g xmlns="http://www.w3.org/2000/svg"><path d="m443.017 397.204c-28.737-81.745-59.368-171.203-187.017-171.203-56.898 0-99.567 17.909-130.446 54.751-27.352 32.634-42.207 75.593-56.571 116.452-17.654 50.073 25.774 100.643 78.212 90.57 43.022-8.274 102.11-22.214 186.562-5.971 32.546 6.259 35.57 7.254 44.419 7.254 46.227-.002 80.957-46.14 64.841-91.853z" fill="#ffffff" data-original="#ff405c" style="" class=""/><path d="m378.177 489.057c46.226-.002 80.956-46.141 64.839-91.854-28.736-81.744-59.367-171.202-187.016-171.202v248.36c63.939 0 101.367 14.696 122.177 14.696z" fill="#ffffff" data-original="#c30047" style="" class=""/><path d="m296 342.91h-25v-25c0-8.284-6.716-15-15-15s-15 6.716-15 15v25h-25c-8.284 0-15 6.716-15 15s6.716 15 15 15h25v25c0 8.284 6.716 15 15 15s15-6.716 15-15v-25h25c8.284 0 15-6.716 15-15s-6.716-15-15-15z" fill="#d92027" data-original="#e1f3ff" style="" class=""/><path d="m271 397.91v-25h25c8.284 0 15-6.716 15-15s-6.716-15-15-15h-25v-25c0-8.284-6.716-15-15-15v110c8.284 0 15-6.716 15-15z" fill="#d92027" data-original="#b1d5f1" style="" class=""/><path d="m456 150.91c-30.327 0-55 24.673-55 55s24.673 55 55 55 56-24.673 56-55-25.673-55-56-55z" fill="#ffffff" data-original="#c30047" style="" class=""/><ellipse cx="336" cy="101.91" fill="#ffffff" rx="63.087" ry="79.164" data-original="#c30047" style="" class=""/><g fill="#ff405c"><ellipse cx="176" cy="101.91" rx="63.087" ry="79.164" fill="#ffffff" data-original="#ff405c" style="" class=""/><path d="m56 150.91c-30.327 0-56 24.673-56 55s25.673 55 56 55 55-24.673 55-55-24.673-55-55-55z" fill="#ffffff" data-original="#ff405c" style="" class=""/></g></g></g></svg>
